<?xml version="1.0" encoding="UTF-8" standalone="no"?><!DOCTYPE svg PUBLIC "-//W3C//DTD SVG 1.1//EN" "http://www.w3.org/Graphics/SVG/1.1/DTD/svg11.dtd"><svg width="100%" height="100%" viewBox="0 0 135 135" version="1.1" xmlns="http://www.w3.org/2000/svg" xmlns:xlink="http://www.w3.org/1999/xlink" xml:space="preserve" xmlns:serif="http://www.serif.com/" style="fill-rule:evenodd;clip-rule:evenodd;stroke-linecap:round;stroke-linejoin:round;stroke-miterlimit:1.5;"><path d="M67.595,0.212c37.255,-0 67.501,30.246 67.501,67.502c0,37.255 -30.246,67.502 -67.501,67.502c-37.256,-0 -67.502,-30.247 -67.502,-67.502c-0,-37.256 30.246,-67.502 67.502,-67.502Zm-0,10c-31.737,-0 -57.502,25.766 -57.502,57.502c-0,31.736 25.765,57.502 57.502,57.502c31.736,-0 57.501,-25.766 57.501,-57.502c0,-31.736 -25.765,-57.502 -57.501,-57.502Z" style="fill:#e08a90;"/><g id="Layer1"><path d="M38.872,39.085l57.462,57.462" style="fill:none;stroke:#e08a90;stroke-width:20px;"/><path d="M38.855,96.547l57.479,-57.48" style="fill:none;stroke:#e08a90;stroke-width:20px;"/></g></svg>